<?xml version="1.0" encoding="UTF-8" standalone="no"?>
<!-- Created with Inkscape (http://www.inkscape.org/) -->

<svg
   xmlns:dc="http://purl.org/dc/elements/1.1/"
   xmlns:cc="http://creativecommons.org/ns#"
   xmlns:rdf="http://www.w3.org/1999/02/22-rdf-syntax-ns#"
   xmlns:svg="http://www.w3.org/2000/svg"
   xmlns="http://www.w3.org/2000/svg"
   xmlns:sodipodi="http://sodipodi.sourceforge.net/DTD/sodipodi-0.dtd"
   xmlns:inkscape="http://www.inkscape.org/namespaces/inkscape"
   id="svg3355"
   version="1.1"
   inkscape:version="0.91 r13725"
   xml:space="preserve"
   width="192"
   height="211"
   viewBox="0 0 192 211"
   sodipodi:docname="lacuna_lab_logo.svg"><metadata
     id="metadata3361"><rdf:RDF><cc:Work
         rdf:about=""><dc:format>image/svg+xml</dc:format><dc:type
           rdf:resource="http://purl.org/dc/dcmitype/StillImage" /><dc:title></dc:title></cc:Work></rdf:RDF></metadata><defs
     id="defs3359"><clipPath
       clipPathUnits="userSpaceOnUse"
       id="clipPath3377"><path
         d="m 0,672.355 912,0 L 912,0 0,0 0,672.355 Z"
         id="path3379"
         inkscape:connector-curvature="0" /></clipPath><clipPath
       clipPathUnits="userSpaceOnUse"
       id="clipPath3449"><path
         d="m 0,672.355 912,0 L 912,0 0,0 0,672.355 Z"
         id="path3451"
         inkscape:connector-curvature="0" /></clipPath></defs><sodipodi:namedview
     pagecolor="#ffffff"
     bordercolor="#666666"
     borderopacity="1"
     objecttolerance="10"
     gridtolerance="10"
     guidetolerance="10"
     inkscape:pageopacity="0"
     inkscape:pageshadow="2"
     inkscape:window-width="2558"
     inkscape:window-height="1419"
     id="namedview3357"
     showgrid="true"
     inkscape:zoom="2.2427008"
     inkscape:cx="145.42701"
     inkscape:cy="186.94653"
     inkscape:window-x="0"
     inkscape:window-y="0"
     inkscape:window-maximized="0"
     inkscape:current-layer="g3489"
     fit-margin-top="0"
     fit-margin-left="0"
     fit-margin-right="0"
     fit-margin-bottom="0"><inkscape:grid
       type="xygrid"
       id="grid3517"
       originx="0"
       originy="-5.8593741e-07" /></sodipodi:namedview><g
     id="g3363"
     inkscape:groupmode="layer"
     inkscape:label="Lacuna_Lab_Logo_V_150815"
     transform="matrix(1.25,0,0,-1.25,0,211.00002)"><g
       id="g3489"
       transform="translate(-382.127,-165.46778)"><g
         transform="translate(382.127,165.4678)"
         id="g3365"><path
           inkscape:connector-curvature="0"
           id="path3367"
           style="fill:#000000;fill-opacity:1;fill-rule:nonzero;stroke:none"
           d="m 0,0 0,168.8 38.4,0 0,-11.2 -24,0 0,-145.6 24,0 0,-12 z"
           sodipodi:nodetypes="ccccccccc" /></g><g
         transform="translate(535.623,334.6191)"
         id="g3369"><path
           inkscape:connector-curvature="0"
           id="path3371"
           style="fill:#000000;fill-opacity:1;fill-rule:nonzero;stroke:none"
           d="m 0.104,-0.35130047 0,-168.79969953 -39.2,0 0,11.9997 24.8,0 0,145.6 -24.8,0 0,11.19999953 z"
           sodipodi:nodetypes="ccccccccc" /></g><g
         id="g3373"><g
           clip-path="url(#clipPath3377)"
           id="g3375"><g
             transform="translate(434.5234,279.9551)"
             id="g3381"><path
               inkscape:connector-curvature="0"
               id="path3383"
               style="fill:#000000;fill-opacity:1;fill-rule:nonzero;stroke:none"
               d="m 0,0 -15.693,0 c -0.973,0 -1.801,0.791 -1.801,1.799 l 0,24.693 c 0,1.008 0.828,1.799 1.801,1.799 1.007,0 1.798,-0.791 1.798,-1.799 L -13.895,3.6 0,3.6 C 1.008,3.6 1.801,2.807 1.801,1.799 1.801,0.791 1.008,0 0,0" /></g><g
             transform="translate(492.1289,279.4863)"
             id="g3385"><path
               inkscape:connector-curvature="0"
               id="path3387"
               style="fill:#000000;fill-opacity:1;fill-rule:nonzero;stroke:none"
               d="m 0,0 c -2.016,0 -3.959,0.396 -5.795,1.187 -1.728,0.756 -3.312,1.801 -4.68,3.168 -1.369,1.332 -2.412,2.916 -3.168,4.68 -0.791,1.799 -1.152,3.707 -1.152,5.651 0,1.98 0.397,3.888 1.152,5.687 0.756,1.729 1.836,3.313 3.204,4.645 1.369,1.367 2.988,2.412 4.752,3.168 1.835,0.755 3.779,1.15 5.759,1.15 3.239,0 6.262,-1.008 8.783,-2.951 0.791,-0.612 0.936,-1.729 0.36,-2.52 -0.611,-0.791 -1.764,-0.935 -2.52,-0.359 -1.908,1.474 -4.175,2.23 -6.623,2.23 -1.511,0 -2.988,-0.287 -4.392,-0.863 -1.332,-0.576 -2.555,-1.367 -3.6,-2.412 -1.008,-1.008 -1.836,-2.195 -2.41,-3.527 -0.576,-1.332 -0.865,-2.772 -0.865,-4.248 0,-1.475 0.289,-2.879 0.865,-4.247 C -9.756,9.107 -8.963,7.92 -7.92,6.912 -5.795,4.787 -2.988,3.6 0,3.6 1.332,3.6 2.592,3.852 3.814,4.283 5.004,4.715 6.082,5.363 7.055,6.156 7.811,6.803 8.926,6.695 9.574,5.939 10.223,5.184 10.115,4.031 9.359,3.42 8.063,2.34 6.623,1.512 5.074,0.936 3.455,0.324 1.727,0 0,0" /></g><g
             transform="translate(428.9434,236.3213)"
             id="g3389"><path
               inkscape:connector-curvature="0"
               id="path3391"
               style="fill:#000000;fill-opacity:1;fill-rule:nonzero;stroke:none"
               d="m 0,0 c -2.627,0 -4.895,0.541 -6.73,1.619 -1.584,0.901 -2.807,2.16 -3.708,3.781 -1.476,2.735 -1.476,5.579 -1.476,6.514 l 0,15.01 c 0,0.972 0.828,1.801 1.801,1.801 1.008,0 1.799,-0.829 1.799,-1.801 l 0,-15.01 c 0,-0.719 0,-2.879 1.044,-4.787 C -6.693,6.084 -5.937,5.291 -4.93,4.715 -3.67,3.996 -2.016,3.6 0,3.6 c 2.018,0 3.672,0.396 4.932,1.115 0.972,0.576 1.763,1.369 2.304,2.377 1.043,1.943 1.043,4.103 1.043,4.822 l 0,15.01 c 0,0.972 0.828,1.801 1.801,1.801 1.008,0 1.799,-0.829 1.799,-1.801 l 0,-15.01 c 0,-0.935 0,-3.814 -1.475,-6.514 C 9.072,2.916 6.191,0 0,0" /></g><g
             transform="translate(468.9746,236.6455)"
             id="g3393"><path
               inkscape:connector-curvature="0"
               id="path3395"
               style="fill:#000000;fill-opacity:1;fill-rule:nonzero;stroke:none"
               d="m 0,0 c -0.539,0 -1.043,0.252 -1.402,0.648 l -17.387,20.913 0,-19.725 c 0,-1.008 -0.791,-1.801 -1.801,-1.801 -1.008,0 -1.799,0.793 -1.799,1.801 l 0,24.693 c 0,0.756 0.469,1.44 1.188,1.692 0.721,0.252 1.512,0.035 1.98,-0.541 l 17.422,-20.877 0,19.689 c 0,1.008 0.791,1.801 1.799,1.801 0.973,0 1.801,-0.793 1.801,-1.801 l 0,-24.693 C 1.801,1.043 1.297,0.396 0.613,0.107 0.396,0.035 0.18,0 0,0" /></g><g
             transform="translate(434.5234,193.5537)"
             id="g3397"><path
               inkscape:connector-curvature="0"
               id="path3399"
               style="fill:#000000;fill-opacity:1;fill-rule:nonzero;stroke:none"
               d="m 0,0 -15.693,0 c -0.973,0 -1.801,0.791 -1.801,1.799 l 0,24.693 c 0,1.008 0.828,1.799 1.801,1.799 1.007,0 1.798,-0.791 1.798,-1.799 L -13.895,3.6 0,3.6 C 1.008,3.6 1.801,2.807 1.801,1.799 1.801,0.791 1.008,0 0,0" /></g><g
             transform="translate(498.3574,205.0361)"
             id="g3401"><path
               inkscape:connector-curvature="0"
               id="path3403"
               style="fill:#000000;fill-opacity:1;fill-rule:nonzero;stroke:none"
               d="m 0,0 c -0.721,0.719 -1.766,1.043 -2.484,1.187 -0.793,0.145 -1.405,0.108 -1.44,0.108 l -0.109,0 -5.975,-0.035 -0.035,0 c -0.973,0 -1.764,0.828 -1.801,1.799 0,1.007 0.828,1.8 1.801,1.8 l 5.902,0.036 c 0.325,0.037 1.871,0.289 2.844,1.439 0.649,0.828 0.901,2.053 0.721,3.564 -0.289,2.34 -1.621,3.313 -4.68,3.313 l -9.18,0 0,-21.059 10.836,0 c 1.223,0 2.268,0.252 2.987,0.721 0.972,0.576 1.476,1.619 1.621,3.168 C 1.187,-2.195 0.826,-0.863 0,0 M 4.607,-4.283 C 4.463,-5.687 4.104,-6.875 3.527,-7.92 2.951,-8.855 2.23,-9.611 1.295,-10.188 -0.037,-11.016 -1.656,-11.447 -3.6,-11.447 l -12.634,0 c -0.469,0 -0.936,0.179 -1.26,0.504 -0.324,0.359 -0.541,0.793 -0.541,1.297 l 0,24.656 c 0,1.008 0.828,1.799 1.801,1.799 l 10.978,0 c 1.152,0 2.879,-0.071 4.463,-0.864 C 0.719,15.227 2.59,13.678 2.986,10.33 3.166,8.998 3.094,7.811 2.807,6.695 2.555,5.723 2.086,4.822 1.475,4.031 1.33,3.887 1.223,3.779 1.115,3.635 1.654,3.311 2.123,2.951 2.555,2.52 3.311,1.727 3.887,0.791 4.246,-0.324 4.607,-1.477 4.715,-2.809 4.607,-4.283" /></g></g></g><g
         id="g3445"><g
           clip-path="url(#clipPath3449)"
           id="g3447"><g
             transform="translate(472.3711,282.582)"
             id="g3453"><path
               inkscape:connector-curvature="0"
               id="path3455"
               style="fill:#000000;fill-opacity:1;fill-rule:nonzero;stroke:none"
               d="m 0,0 -12.059,24.656 c -0.289,0.614 -0.935,1.008 -1.621,1.008 -0.683,0 -1.295,-0.394 -1.619,-1.008 L -27.285,-0.035 c -0.397,-0.793 -0.145,-1.729 0.539,-2.233 0.324,-0.252 0.721,-0.359 1.08,-0.359 0.432,0 0.9,0.18 1.225,0.504 L -13.68,19.762 -6.078,4.219 c 0.01,-0.004 0.021,-0.004 0.031,-0.008 l 2.807,-5.795 c 0.431,-0.863 1.511,-1.26 2.412,-0.791 C 0.072,-1.943 0.432,-0.863 0,0" /></g><g
             transform="translate(503.8223,239.165)"
             id="g3457"><path
               inkscape:connector-curvature="0"
               id="path3459"
               style="fill:#000000;fill-opacity:1;fill-rule:nonzero;stroke:none"
               d="m 0,0 -12.059,24.656 c -0.287,0.614 -0.935,1.008 -1.619,1.008 -0.683,0 -1.297,-0.394 -1.621,-1.008 L -27.285,-0.035 c -0.395,-0.793 -0.143,-1.729 0.541,-2.233 0.324,-0.252 0.719,-0.359 1.08,-0.359 0.432,0 0.898,0.18 1.223,0.504 l 10.763,21.885 7.602,-15.543 c 0.01,-0.004 0.019,-0.004 0.029,-0.008 l 2.807,-5.795 c 0.431,-0.863 1.511,-1.26 2.412,-0.791 C 0.072,-1.943 0.432,-0.863 0,0" /></g><g
             transform="translate(472.3711,196.1982)"
             id="g3461"><path
               inkscape:connector-curvature="0"
               id="path3463"
               style="fill:#000000;fill-opacity:1;fill-rule:nonzero;stroke:none"
               d="m 0,0 -12.059,24.656 c -0.289,0.614 -0.935,1.008 -1.621,1.008 -0.683,0 -1.295,-0.394 -1.619,-1.008 L -27.285,-0.035 c -0.397,-0.793 -0.145,-1.729 0.539,-2.233 0.324,-0.252 0.721,-0.359 1.08,-0.359 0.432,0 0.9,0.18 1.225,0.504 L -13.68,19.762 -6.078,4.219 c 0.01,-0.004 0.021,-0.004 0.031,-0.008 l 2.807,-5.795 c 0.431,-0.863 1.511,-1.26 2.412,-0.791 C 0.072,-1.943 0.432,-0.863 0,0" /></g></g></g></g></g></svg>