<?xml version="1.0" encoding="utf-8"?>
<!-- Generator: Adobe Illustrator 16.0.4, SVG Export Plug-In . SVG Version: 6.00 Build 0)  -->
<!DOCTYPE svg PUBLIC "-//W3C//DTD SVG 1.1//EN" "http://www.w3.org/Graphics/SVG/1.1/DTD/svg11.dtd">
<svg version="1.1" id="ScienceHackDayLogo" xmlns="http://www.w3.org/2000/svg" xmlns:xlink="http://www.w3.org/1999/xlink" x="0px"
	 y="0px" width="850.394px" height="850.394px" viewBox="-108.196 -108.196 850.394 850.394"
	 enable-background="new -108.196 -108.196 850.394 850.394" xml:space="preserve">
<path d="M317.196-108.303c-233.342,0-422.5,189.925-422.5,424.214c0,234.287,189.158,424.214,422.5,424.214
	c233.343,0,422.5-189.927,422.5-424.214C739.696,81.622,550.539-108.303,317.196-108.303z M564.448,564.967
	c-6.639,6.665-16.946,10.047-30.63,10.047c-17.379,0-39.285-5.448-64.227-15.776c10.181,0,19.913,0,24.127,0
	c2.716-11.21,5.433-46.966,5.433-60.874c0-24.507-2.966-50.482-8.566-74.848c14.148-2.573,27.713-5.459,40.643-8.616
	c5.808,9.965,11.136,19.778,15.928,29.391C575.884,501.882,582.349,546.994,564.448,564.967z M447.633,334.093
	c-4.95-4.716-10.216-8.501-15.78-11.18c-1.921-17.18-4.188-33.517-6.802-49.083c13.023,14.23,25.428,28.562,37.124,42.878
	C457.44,322.506,452.594,328.303,447.633,334.093z M202.523,323.053c-5.512,2.701-10.731,6.485-15.64,11.186
	c-5.003-5.839-9.894-11.686-14.668-17.53c11.699-14.318,24.105-28.65,37.128-42.883C206.72,289.436,204.451,305.819,202.523,323.053
	z M274.542,495.293c-15.814,11.462-31.514,21.968-46.954,31.393c-10.631,6.491-20.997,12.361-31.038,17.607
	c0.363-24.951,3.957-57.408,9.098-81.36C222.56,480.064,245.026,490.526,274.542,495.293z M428.97,462.695
	c5.179,24.022,8.799,56.693,9.151,81.746c-10.127-5.281-20.586-11.202-31.312-17.751c-15.444-9.425-31.145-19.934-46.961-31.397
	C389.501,490.505,412.034,479.969,428.97,462.695z M487.324,410.599c-7.232-26.224-17.628-49.794-30.735-66.557
	c4.807-5.601,9.507-11.191,14.084-16.77c20.299,25.592,38.269,51.037,53.396,75.672
	C512.259,405.755,499.988,408.307,487.324,410.599z M479.223,316.711c22.521-28.236,42.01-55.99,58.013-82.347
	c11.29,2.958,22.117,6.156,32.411,9.595c60.874,20.327,97.214,47.638,97.214,73.055c0,25.416-36.341,52.724-97.214,73.052
	c-10.199,3.405-20.922,6.577-32.097,9.51C521.489,373.063,501.894,345.131,479.223,316.711z M470.674,306.147
	c-15.443-18.812-32.198-37.78-50.127-56.642c-2.548-12.57-5.354-24.605-8.425-36.15c39.998,3.641,77.69,9.591,111.627,17.646
	C508.688,255.472,490.83,280.74,470.674,306.147z M408.297,199.658c-7.228-24.571-15.741-46.851-25.603-67.295
	c-1.178-2.444-2.474-4.981-3.87-7.561c9.398-6.388,18.737-12.426,27.98-18.067c51.055-31.162,96.161-48.324,127.027-48.329h0.001
	c13.676,0,23.976,3.379,30.615,10.046c17.901,17.973,11.436,63.085-17.294,120.679c-4.879,9.782-10.304,19.771-16.232,29.918
	C494.572,210.191,453.122,203.528,408.297,199.658z M372.026,113.336c-12.745-19.602-31.318-38.339-54.829-38.564c0,0,0,0-0.001,0
	c-23.508,0.223-42.082,18.959-54.827,38.562c-9.215-6.258-18.307-12.131-27.234-17.595c2.876-10.991,5.973-21.55,9.303-31.598
	c20.245-61.12,47.446-97.61,72.757-97.61c25.309,0,52.509,36.492,72.757,97.615c3.329,10.047,6.427,20.607,9.303,31.597
	C390.328,101.207,381.238,107.081,372.026,113.336z M227.588,106.731c9.244,5.642,18.583,11.68,27.982,18.07
	c-1.398,2.582-2.692,5.118-3.872,7.562c-9.861,20.444-18.375,42.724-25.602,67.295c-44.825,3.87-86.276,10.533-122.624,19.391
	c-5.929-10.147-11.354-20.136-16.233-29.917C58.513,131.538,52.047,86.425,69.944,68.455c6.64-6.667,16.947-10.047,30.632-10.047
	l0,0C131.427,58.407,176.532,75.568,227.588,106.731z M222.271,213.356c-3.069,11.545-5.875,23.579-8.423,36.146
	c-17.93,18.862-34.685,37.833-50.13,56.646c-20.155-25.409-38.013-50.676-53.074-75.146
	C144.579,222.947,182.275,216.996,222.271,213.356z M155.169,316.711c-22.67,28.421-42.265,56.354-58.329,82.864
	c-11.172-2.933-21.897-6.105-32.095-9.51c-60.875-20.328-97.216-47.639-97.216-73.052c0-25.417,36.343-52.726,97.216-73.055
	c10.295-3.439,21.124-6.637,32.411-9.595C113.16,260.72,132.646,288.473,155.169,316.711z M163.716,327.271
	c4.626,5.635,9.373,11.283,14.23,16.938c-13.053,16.763-23.407,40.284-30.614,66.438c-12.759-2.303-25.115-4.875-37.011-7.705
	C125.449,378.309,143.416,352.86,163.716,327.271z M144.074,423.566c-5.592,24.35-8.554,50.305-8.554,74.797
	c0,13.909,2.716,49.664,5.433,60.874c4.173,0,13.769,0,23.847,0c-24.943,10.328-46.846,15.775-64.226,15.775
	c-13.685,0-23.99-3.381-30.63-10.047c-17.898-17.973-11.434-63.089,17.293-120.678c4.794-9.612,10.12-19.426,15.926-29.389
	C116.175,418.078,129.83,420.979,144.074,423.566z M323.734,680.655c35.394-5.705,66.734-57.44,87.586-135.731
	c-3.918-2.271-7.866-4.624-11.854-7.062c-2.932,11.277-6.104,22.098-9.514,32.384c-20.245,61.122-47.445,97.609-72.758,97.609
	c-25.312,0-52.512-36.49-72.758-97.609c-3.408-10.286-6.582-21.106-9.514-32.384c-3.983,2.434-7.934,4.79-11.851,7.062
	c20.85,78.291,52.192,130.026,87.586,135.731c-46.765-0.817-92.111-10.401-134.877-28.566
	c-41.874-17.782-79.614-43.027-112.27-75.028c9.232,7.63,21.8,11.284,37.063,11.284c25.583,0,58.678-10.245,96.059-29.107
	c0.095,0,0.149,0,0.149,0c0-0.024-0.001-0.049-0.002-0.073c29.63-14.967,61.951-35.342,95.36-60.325
	c0.747,26.757,5.944,61.207,5.944,61.207h38.624c0,0,4.987-34.879,5.74-61.059c75.547,56.459,145.519,89.357,191.369,89.357
	c15.253,0,27.826-3.654,37.059-11.278c-32.655,31.997-70.391,57.24-112.263,75.021C415.846,670.25,370.501,679.838,323.734,680.655z
	 M576.381,571.562c23.397-28.299,9.518-88.232-31.8-160.084c82.656-22.217,135.563-56.275,135.563-94.465
	c0-38.236-53.036-72.332-135.864-94.546c42.981-74.57,56.503-136.387,29.56-163.441c-9.423-9.461-23.067-13.955-40.019-13.952
	c-31.517,0.005-74.431,15.554-122.713,43.603C388.978,6.052,355.136-46.802,317.195-46.802c-37.937,0-71.779,52.852-93.909,135.474
	c-48.284-28.05-91.197-43.599-122.711-43.599c-16.948,0-30.599,4.494-40.021,13.954c-26.942,27.052-13.422,88.87,29.559,163.438
	c-82.828,22.214-135.863,56.31-135.863,94.546c0,38.189,52.907,72.248,135.562,94.462C48.493,483.332,34.613,543.27,58.016,571.565
	c-32.307-33.005-57.759-71.222-75.641-113.669c-18.93-44.938-28.53-92.71-28.53-141.987c0-49.279,9.6-97.05,28.53-141.988
	C0.673,130.486,26.88,91.463,60.268,57.94c33.388-33.525,72.251-59.839,115.513-78.208c44.757-19.007,92.335-28.645,141.414-28.645
	c49.08,0,96.656,9.638,141.416,28.645c43.26,18.372,82.124,44.685,115.514,78.208c33.389,33.523,59.596,72.546,77.891,115.981
	c18.932,44.938,28.531,92.709,28.531,141.988c0,49.275-9.6,97.047-28.531,141.987C634.138,500.345,608.687,538.557,576.381,571.562z
	"/>
</svg>
