<?xml version="1.0" encoding="UTF-8" standalone="no"?>
<!-- Generator: Adobe Illustrator 15.0.0, SVG Export Plug-In . SVG Version: 6.00 Build 0)  -->

<svg
   xmlns:dc="http://purl.org/dc/elements/1.1/"
   xmlns:cc="http://creativecommons.org/ns#"
   xmlns:rdf="http://www.w3.org/1999/02/22-rdf-syntax-ns#"
   xmlns:svg="http://www.w3.org/2000/svg"
   xmlns="http://www.w3.org/2000/svg"
   xmlns:sodipodi="http://sodipodi.sourceforge.net/DTD/sodipodi-0.dtd"
   xmlns:inkscape="http://www.inkscape.org/namespaces/inkscape"
   version="1.1"
   id="Icons"
   x="0px"
   y="0px"
   width="90"
   height="90"
   viewBox="0 0 90 90"
   xml:space="preserve"
   inkscape:version="0.91 r13725"
   sodipodi:docname="icon-twitter.svg"><metadata
     id="metadata5004"><rdf:RDF><cc:Work
         rdf:about=""><dc:format>image/svg+xml</dc:format><dc:type
           rdf:resource="http://purl.org/dc/dcmitype/StillImage" /><dc:title></dc:title></cc:Work></rdf:RDF></metadata><defs
     id="defs5002" /><sodipodi:namedview
     pagecolor="#ffffff"
     bordercolor="#666666"
     borderopacity="1"
     objecttolerance="10"
     gridtolerance="10"
     guidetolerance="10"
     inkscape:pageopacity="0"
     inkscape:pageshadow="2"
     inkscape:window-width="958"
     inkscape:window-height="1059"
     id="namedview5000"
     showgrid="false"
     inkscape:zoom="3.4323189"
     inkscape:cx="39.162965"
     inkscape:cy="65.185705"
     inkscape:window-x="960"
     inkscape:window-y="0"
     inkscape:window-maximized="0"
     inkscape:current-layer="Icons" /><g
     id="g4251"><path
       inkscape:connector-curvature="0"
       id="Facebook__x28_alt_x29_"
       d="M 90,15.001 C 90,7.119 82.884,0 75,0 L 15,0 C 7.116,0 0,7.119 0,15.001 L 0,74.999 C 0,82.881 7.116,90 15.001,90 35.000667,90 55.000333,90 75,90 82.884,90 90,82.881 90,74.999 Z"
       sodipodi:nodetypes="sssssccss" /></g><path
     id="Twitter__x28_alt_x29_"
     d="m 74.395111,42.098129 c 4.269525,-0.352204 7.164863,-2.293128 8.279754,-4.926635 -1.540576,0.945968 -6.321093,1.977242 -8.961358,0.994955 -0.129226,-0.619947 -0.273655,-1.209487 -0.41555,-1.741594 -2.011871,-7.386997 -8.899701,-13.338149 -16.11693,-12.619382 0.583629,-0.235648 1.175703,-0.455248 1.766933,-0.652043 0.793938,-0.284635 5.455364,-1.043098 4.721394,-2.688407 -0.619102,-1.446824 -6.313491,1.093776 -7.385307,1.425709 1.414729,-0.532107 3.756,-1.447669 4.006006,-3.074396 -2.168125,0.297304 -4.296553,1.322666 -5.941017,2.81341 0.593764,-0.639373 1.043943,-1.418107 1.139384,-2.256809 -5.783918,3.695187 -9.162375,11.144685 -11.896392,18.37036 -2.147009,-2.080284 -4.049925,-3.718836 -5.756891,-4.628486 -4.788963,-2.568472 -10.514603,-5.247588 -19.502988,-8.584659 -0.276189,2.973887 1.470473,6.928371 6.50353,9.557655 -1.090397,-0.146118 -3.084532,0.179903 -4.679163,0.561668 0.649508,3.407174 2.770334,6.213828 8.512867,7.571123 -2.624217,0.173146 -3.980667,0.770288 -5.209581,2.05748 1.195129,2.369143 4.111582,5.15806 9.358326,4.585411 -5.832906,2.514417 -2.378433,7.170775 2.368299,6.475658 -8.097317,8.363371 -20.863662,7.749336 -28.19407,0.75424 19.139805,26.080845 60.745504,15.424346 66.945818,-9.697016 4.644534,0.0397 7.376016,-1.60899 9.069468,-3.4266 -2.676583,0.454402 -6.555051,-0.0152 -8.612532,-0.871642 z"
     inkscape:connector-curvature="0"
     style="fill:#ffffff" /></svg>