<?xml version="1.0" encoding="utf-8"?>
<!-- Generator: Adobe Illustrator 16.0.3, SVG Export Plug-In . SVG Version: 6.00 Build 0)  -->
<!DOCTYPE svg PUBLIC "-//W3C//DTD SVG 1.1//EN" "http://www.w3.org/Graphics/SVG/1.1/DTD/svg11.dtd">
<svg version="1.1" xmlns="http://www.w3.org/2000/svg" xmlns:xlink="http://www.w3.org/1999/xlink" x="0px" y="0px" width="432px"
	 height="468px" viewBox="0 0 432 468" enable-background="new 0 0 432 468" xml:space="preserve">
<g id="Brackets">
	<g>
		<path d="M0,468.002V0h108v36H40.138v396.002H108v36H0z"/>
	</g>
	<g>
		<path d="M432,0v468.002H324v-36h67.862V36H324V0H432z"/>
	</g>
</g>
<g id="LAB">
	<path d="M323.899,354.356c-0.368,3.578-1.284,6.604-2.752,9.268c-1.468,2.383-3.305,4.309-5.688,5.781
		c-3.396,2.105-7.521,3.207-12.473,3.207h-32.193c-1.194,0-2.386-0.459-3.211-1.283c-0.826-0.918-1.378-2.021-1.378-3.307v-62.826
		c0-2.568,2.11-4.583,4.589-4.583h27.973c2.937,0,7.336,0.179,11.37,2.198c3.853,1.832,8.621,5.779,9.633,14.309
		c0.456,3.395,0.272,6.42-0.459,9.261c-0.643,2.478-1.837,4.773-3.394,6.789c-0.37,0.368-0.643,0.641-0.918,1.01
		c1.376,0.825,2.57,1.742,3.669,2.842c1.926,2.02,3.395,4.404,4.309,7.246C323.899,347.204,324.172,350.599,323.899,354.356z
		 M312.159,343.442c-1.837-1.83-4.499-2.658-6.331-3.025c-2.019-0.367-3.577-0.275-3.668-0.275h-0.277l-15.224,0.09h-0.092
		c-2.477,0-4.493-2.109-4.588-4.583c0-2.569,2.111-4.589,4.588-4.589l15.041-0.089c0.826-0.093,4.769-0.736,7.245-3.667
		c1.653-2.11,2.295-5.231,1.838-9.083c-0.736-5.961-4.131-8.44-11.925-8.44h-23.389v53.66h27.609c3.115,0,5.778-0.643,7.609-1.84
		c2.478-1.467,3.762-4.123,4.131-8.068C315.184,349.036,314.266,345.644,312.159,343.442z"/>
	<path d="M211.84,300.614c-1.748,0-3.396,1.006-4.134,2.57l-30.744,62.864c-1.101,2.201-0.183,4.953,2.11,6.057
		c2.296,1.193,5.05,0.184,6.151-2.018l7.155-14.777c0.024-0.008,0.056-0.008,0.081-0.02l19.38-39.628h-0.131l19.38,39.628
		c0.025,0.012,0.056,0.012,0.081,0.02l7.155,14.777c1.101,2.201,3.854,3.211,6.149,2.018c2.295-1.104,3.212-3.855,2.112-6.057
		l-30.744-62.864c-0.737-1.563-2.386-2.57-4.134-2.57"/>
	<path d="M152.519,372.604h-39.937c-2.474,0-4.582-2.014-4.582-4.578v-62.84c0-2.563,2.108-4.577,4.582-4.577
		c2.566,0,4.576,2.013,4.576,4.577v58.258h35.36c2.565,0,4.582,2.018,4.582,4.582S155.084,372.604,152.519,372.604z"/>
</g>
<g id="UNA">
	<path d="M291.06,198c-1.747,0-3.395,1.006-4.134,2.57l-30.739,62.854c-1.1,2.198-0.182,4.952,2.111,6.053
		c2.296,1.195,5.049,0.185,6.15-2.017l7.153-14.772c0.024-0.009,0.056-0.009,0.081-0.02l19.377-39.622h-0.131l19.377,39.622
		c0.025,0.01,0.057,0.01,0.082,0.02l7.152,14.772c1.102,2.201,3.854,3.211,6.151,2.017c2.294-1.101,3.211-3.854,2.11-6.053
		l-30.739-62.854c-0.738-1.563-2.386-2.57-4.134-2.57"/>
	<path d="M135.627,270.75c-6.651,0-12.395-1.37-17.046-4.099c-4.014-2.282-7.107-5.472-9.389-9.578
		c-3.741-6.925-3.741-14.128-3.741-16.496v-38.017c0-2.463,2.098-4.561,4.561-4.561c2.554,0,4.556,2.097,4.556,4.561v38.017
		c0,1.82,0,7.291,2.65,12.124c1.456,2.642,3.373,4.651,5.924,6.109c3.192,1.821,7.38,2.823,12.485,2.823
		c5.109,0,9.301-1.002,12.49-2.823c2.465-1.458,4.468-3.467,5.839-6.019c2.642-4.923,2.642-10.394,2.642-12.214v-38.017
		c0-2.463,2.095-4.561,4.56-4.561c2.554,0,4.557,2.097,4.557,4.561v38.017c0,2.368,0,9.661-3.735,16.496
		C158.605,263.366,151.308,270.75,135.627,270.75z"/>
	<path d="M238.479,269.998c-1.373,0-2.654-0.641-3.567-1.648l-44.193-53.154v50.135c0,2.563-2.01,4.578-4.577,4.578
		c-2.563,0-4.572-2.015-4.572-4.578v-62.765c0-1.921,1.191-3.658,3.018-4.299c1.832-0.64,3.844-0.089,5.037,1.377l44.283,53.064
		V202.66c0-2.563,2.007-4.577,4.572-4.577c2.469,0,4.576,2.015,4.576,4.577v62.765c0,1.921-1.283,3.566-3.02,4.3
		C239.482,269.907,238.933,269.998,238.479,269.998z"/>
</g>
<g id="LAC">
	<path d="M152.519,162h-39.937c-2.474,0-4.582-2.014-4.582-4.576V94.584c0-2.563,2.108-4.577,4.582-4.577
		c2.566,0,4.576,2.013,4.576,4.577v58.256h35.36c2.565,0,4.582,2.017,4.582,4.583C157.101,159.986,155.084,162,152.519,162z"/>
	<path d="M298.835,162.698c-5.054,0-9.927-0.995-14.528-2.977c-4.336-1.896-8.307-4.516-11.733-7.943
		c-3.434-3.34-6.047-7.312-7.943-11.732c-1.982-4.51-2.888-9.294-2.888-14.167c0-4.964,0.993-9.75,2.888-14.26
		c1.896-4.332,4.604-8.305,8.03-11.644c3.434-3.429,7.492-6.048,11.915-7.942c4.604-1.895,9.474-2.885,14.441-2.885
		c8.118,0,15.698,2.527,22.021,7.398c1.98,1.533,2.345,4.334,0.9,6.318c-1.532,1.983-4.423,2.345-6.318,0.901
		c-4.784-3.697-10.471-5.594-16.604-5.594c-3.791,0-7.493,0.721-11.015,2.165c-3.339,1.445-6.404,3.429-9.024,6.049
		c-2.526,2.525-4.603,5.504-6.042,8.842c-1.444,3.34-2.168,6.949-2.168,10.651c0,3.698,0.724,7.218,2.168,10.646
		c1.439,3.34,3.428,6.317,6.042,8.843c5.329,5.329,12.363,8.307,19.857,8.307c3.339,0,6.497-0.632,9.562-1.715
		c2.984-1.082,5.686-2.708,8.126-4.695c1.893-1.622,4.69-1.351,6.315,0.543c1.625,1.896,1.356,4.784-0.539,6.316
		c-3.252,2.708-6.86,4.784-10.742,6.23C307.496,161.885,303.163,162.698,298.835,162.698z"/>
	<path d="M211.84,90.005c-1.748,0-3.396,1.006-4.134,2.57l-30.744,62.863c-1.101,2.199-0.183,4.952,2.11,6.054
		c2.296,1.194,5.05,0.185,6.151-2.018l7.155-14.774c0.024-0.009,0.056-0.009,0.081-0.02l19.38-39.628h-0.131l19.38,39.628
		c0.025,0.011,0.056,0.011,0.081,0.02l7.155,14.774c1.101,2.203,3.854,3.212,6.149,2.018c2.295-1.102,3.212-3.855,2.112-6.054
		l-30.744-62.863c-0.737-1.563-2.386-2.57-4.134-2.57"/>
</g>
<g id="Guides" display="none">
</g>
</svg>
