<?xml version="1.0" encoding="utf-8"?>
<!-- Generator: Adobe Illustrator 17.0.0, SVG Export Plug-In . SVG Version: 6.00 Build 0)  -->
<!DOCTYPE svg PUBLIC "-//W3C//DTD SVG 1.1//EN" "http://www.w3.org/Graphics/SVG/1.1/DTD/svg11.dtd">
<svg version="1.1" id="Ebene_1" xmlns="http://www.w3.org/2000/svg" xmlns:xlink="http://www.w3.org/1999/xlink" x="0px" y="0px"
	 width="31.75px" height="47.25px" viewBox="0 0 31.75 47.25" enable-background="new 0 0 31.75 47.25" xml:space="preserve">
<path d="M30.344,21.314L19.331,44.741c-0.639,1.331-2.029,2.148-3.48,2.148c-1.454,0-2.846-0.817-3.451-2.148L1.352,21.314
	c-0.785-1.665-1-3.569-1-5.418c0-8.564,6.932-15.494,15.498-15.494c8.562,0,15.494,6.93,15.494,15.494
	C31.344,17.745,31.133,19.649,30.344,21.314z M15.85,8.151c-4.269,0-7.748,3.479-7.748,7.745c0,4.27,3.479,7.75,7.748,7.75
	c4.266,0,7.746-3.48,7.746-7.75C23.596,11.63,20.116,8.151,15.85,8.151z"/>
</svg>
